#N canvas 0 0 1253 544 10;
#X obj 371 209 bng 15 250 50 0 empty empty empty 17 7 0 10 -262144
-1 -1;
#X obj 372 300 float;
#X msg 439 168 3;
#X msg 475 208 5;
#X obj 453 344 print numero;
#X obj 453 303 + 1;
#X obj 320 162 metro 250;
#X obj 320 116 tgl 15 0 empty empty empty 17 7 0 10 -262144 -1 -1 0
1;
#X connect 0 0 1 0;
#X connect 1 0 5 0;
#X connect 2 0 1 1;
#X connect 3 0 1 1;
#X connect 5 0 4 0;
#X connect 5 0 1 1;
#X connect 6 0 0 0;
#X connect 7 0 6 0;
