#N canvas 0 0 450 300 10;
#X msg 198 146 1;
#X msg 228 146 0;
#X obj 118 68 symbol;
#X obj 118 38 openpanel;
#X msg 118 116 open \$1;
#X obj 208 115 delay 50;
#X obj 208 95 t b;
#N canvas 0 0 551 449 (subpatch) 0;
#X obj 13 103 hsl 42 23 0.01 1 1 0 \$0-v \$0-v volume 7 13 1 9 -245500
-13381 -1 3844 0;
#X obj 57 103 tgl 18 0 THIS_IS_HERE_TO_GET_RID_OF_THE_OUTLET \$0-dsp-toggle
dsp 2 9 1 9 -225271 -195568 -33289 1 1;
#N canvas 305 241 482 356 dsp 0;
#X obj 11 7 inlet;
#X obj 92 226 select 0 1;
#X msg 125 248 6;
#X obj 92 57 route dsp;
#X obj 92 36 receive pd;
#X obj 206 138 loadbang;
#X msg 11 220 dsp \$1;
#X obj 11 245 send pd;
#X msg 206 278 set \$1;
#X obj 206 174 value GLOBAL_PDDP_DSP;
#X msg 109 278 color \$1 20 12;
#X obj 180 309 send \$0-dsp-toggle;
#X obj 92 115 change;
#X msg 92 247 0;
#X connect 0 0 6 0;
#X connect 0 0 12 0;
#X connect 1 0 13 0;
#X connect 1 1 2 0;
#X connect 2 0 10 0;
#X connect 3 0 12 0;
#X connect 4 0 3 0;
#X connect 5 0 9 0;
#X connect 6 0 7 0;
#X connect 8 0 11 0;
#X connect 9 0 8 0;
#X connect 9 0 1 0;
#X connect 10 0 11 0;
#X connect 12 0 8 0;
#X connect 12 0 1 0;
#X connect 12 0 9 0;
#X connect 13 0 10 0;
#X restore 82 188 pd dsp logic;
#X obj 201 12 inlet~;
#X obj 86 313 line~;
#X obj 186 373 *~;
#X obj 206 403 dac~;
#X text 213 62 audio in;
#X obj 263 12 inlet~;
#X obj 248 372 *~;
#X obj 201 113 hip~ 3;
#X obj 263 113 hip~ 3;
#X obj 10 328 send pd;
#X msg 10 307 dsp 1;
#X obj 86 292 pack 0 50;
#X msg 86 257 0;
#X obj 86 234 moses 0.011;
#X text 307 114 filter out DC;
#X obj 10 -24 loadbang;
#X msg 111 46 0.75;
#X msg 80 46 1;
#X obj 10 46 delay 300;
#N canvas 130 134 450 300 FilerMaxMin 0;
#X obj 82 204 outlet;
#X obj 82 91 la-kitchen/autocal 0.05 1 0 1;
#X obj 82 21 r FSomE;
#X obj 272 204 outlet;
#X obj 272 91 la-kitchen/autocal 0.05 1 0 1;
#X obj 272 21 r FSomD;
#X connect 1 0 0 0;
#X connect 2 0 1 0;
#X connect 4 0 3 0;
#X connect 5 0 4 0;
#X restore 24 66 pd FilerMaxMin;
#X obj 13 126 hsl 42 23 0.01 1 1 0 \$0-v \$0-v volume 7 13 1 9 -245500
-13381 -1 3844 0;
#X obj 306 313 line~;
#X obj 306 292 pack 0 50;
#X msg 306 257 0;
#X obj 306 234 moses 0.011;
#X obj 10 16 t b b b;
#X connect 0 0 13 0;
#X connect 0 0 16 0;
#X connect 1 0 2 0;
#X connect 3 0 10 0;
#X connect 4 0 5 0;
#X connect 5 0 6 0;
#X connect 8 0 11 0;
#X connect 9 0 6 1;
#X connect 10 0 5 1;
#X connect 11 0 9 1;
#X connect 13 0 12 0;
#X connect 14 0 4 0;
#X connect 15 0 14 0;
#X connect 16 0 15 0;
#X connect 16 1 14 0;
#X connect 18 0 28 0;
#X connect 19 0 0 0;
#X connect 19 0 23 0;
#X connect 20 0 1 0;
#X connect 21 0 0 0;
#X connect 21 0 23 0;
#X connect 22 0 0 0;
#X connect 22 1 23 0;
#X connect 23 0 27 0;
#X connect 23 0 13 0;
#X connect 24 0 9 0;
#X connect 25 0 24 0;
#X connect 26 0 25 0;
#X connect 27 0 26 0;
#X connect 27 1 25 0;
#X connect 28 0 21 0;
#X connect 28 1 20 0;
#X connect 28 2 19 0;
#X coords 0 0 1 1 65 60 1 10 90;
#X restore 118 216 graph;
#X obj 567 187 print;
#X obj 558 45 makefilename %d.aif;
#X obj 118 186 readsf~ 2;
#X obj 119 6 bng 15 250 50 0 empty empty empty 17 7 0 10 -262144 -1
-1;
#X connect 0 0 10 0;
#X connect 1 0 10 0;
#X connect 2 0 4 0;
#X connect 3 0 2 0;
#X connect 4 0 10 0;
#X connect 5 0 0 0;
#X connect 6 0 5 0;
#X connect 9 0 8 0;
#X connect 10 0 7 0;
#X connect 10 0 7 1;
#X connect 10 1 7 1;
#X connect 10 1 7 0;
#X connect 11 0 3 0;
