#N canvas 0 0 450 300 10;
#X msg 151 113 esta é uma msg;
#X obj 160 56 \$1;
#X obj 197 59 \$2;
#X obj 117 177 print msg \$1;
#X obj 163 8 loadbang;
#X connect 1 0 3 0;
#X connect 2 0 3 0;
#X connect 4 0 1 0;
#X connect 4 0 2 0;
