#N canvas 144 137 450 300 10;
#X obj 57 67 bng 15 250 50 0 empty empty empty 17 7 0 10 -262144 -1
-1;
#X msg 57 97 open 0;
#X floatatom 57 276 5 0 0 0 - - -;
#X obj 57 241 change;
#X obj 105 277 s SensorCm;
#X obj 100 66 loadbang;
#X obj 57 166 convert.ascii2pd CR;
#X obj 176 277 outlet cm;
#X obj 183 72 inlet;
#X obj 57 211 route LF;
#X obj 57 125 comport 0 57600;
#X msg 115 24 open 11;
#X obj 158 205 print;
#X obj 267 233 send sensor;
#X connect 0 0 1 0;
#X connect 1 0 10 0;
#X connect 3 0 2 0;
#X connect 3 0 4 0;
#X connect 3 0 7 0;
#X connect 3 0 13 0;
#X connect 5 0 1 0;
#X connect 6 0 9 0;
#X connect 8 0 3 0;
#X connect 9 1 3 0;
#X connect 9 1 12 0;
#X connect 10 0 6 0;
#X connect 11 0 10 0;
